<svg width="400" height="400" viewBox="0 0 400 400" fill="none" xmlns="http://www.w3.org/2000/svg">
<rect width="400" height="400" rx="99" fill="#F1F1F1"/>
<path d="M303.228 309.479H199.732C199.732 248.867 248.867 199.732 309.479 199.732V303.227C309.479 306.685 306.686 309.479 303.228 309.479Z" fill="#050549"/>
<path d="M90.1965 302.88C93.6091 245.349 141.608 201 200 201L199.747 309.494H96.4479C92.8541 309.479 89.9851 306.459 90.1965 302.88Z" fill="#050549"/>
<path d="M96.2514 90H199.747C199.747 150.612 150.611 202 90 202V96.2515C90 92.7936 92.7935 90 96.2514 90Z" fill="#050549"/>
<path d="M309.283 96.5987C305.87 154.13 258.392 201 200 201L199.732 90H303.031C306.625 90 309.494 93.02 309.283 96.5987Z" fill="#050549"/>
</svg>
